# xmcd
#
# Track frame offsets: 
#        150
#        32624
#        51236
#        69140
#        92062
#        118960
#        135858
#        152351
#        170487
#        189941
#
# Disc length: 2822 seconds
#
# Revision: 1
# Processed by: cddbd v1.5.1PL0 Copyright (c) Steve Scherf et al.
# Submitted via: ExactAudioCopy v0.95a5
#
DISCID=750b040a
DTITLE=PAUL RODGERS - The Chronicle
DYEAR=1994
DGENRE=Blues-Rock
TTITLE0=All Right Now
TTITLE1=Wishing Well
TTITLE2=Fire and Water
TTITLE3=Bad Company
TTITLE4=Feel Like Making Love
TTITLE5=Can't Get Enough
TTITLE6=The Hunter
TTITLE7=I Just Want To Make Love To You
TTITLE8=Purple Haze
TTITLE9=Little Wing
EXTD=
EXTT0=
EXTT1=
EXTT2=
EXTT3=
EXTT4=
EXTT5=
EXTT6=
EXTT7=
EXTT8=
EXTT9=
PLAYORDER=
